<?xml version="1.0" encoding="utf-8" standalone="no"?>
<!DOCTYPE svg PUBLIC "-//W3C//DTD SVG 1.1//EN"
  "http://www.w3.org/Graphics/SVG/1.1/DTD/svg11.dtd">
<!-- Created with matplotlib (http://matplotlib.org/) -->
<svg height="432pt" version="1.1" viewBox="0 0 432 432" width="432pt" xmlns="http://www.w3.org/2000/svg" xmlns:xlink="http://www.w3.org/1999/xlink">
 <defs>
  <style type="text/css">
*{stroke-linecap:butt;stroke-linejoin:round;}
  </style>
 </defs>
 <g id="figure_1">
  <g id="patch_1">
   <path d="M 0 432 
L 432 432 
L 432 0 
L 0 0 
z
" style="fill:#ffffff;"/>
  </g>
  <g id="axes_1">
   <g id="patch_2">
    <path d="M 54 384.48 
L 388.8 384.48 
L 388.8 51.84 
L 54 51.84 
z
" style="fill:#ffffff;"/>
   </g>
   <g id="matplotlib.axis_1">
    <g id="xtick_1">
     <g id="line2d_1">
      <defs>
       <path d="M 0 0 
L 0 3.5 
" id="m042bb6240f" style="stroke:#000000;stroke-width:0.8;"/>
      </defs>
      <g>
       <use style="stroke:#000000;stroke-width:0.8;" x="69.218182" xlink:href="#m042bb6240f" y="384.48"/>
      </g>
     </g>
     <g id="text_1">
      <!-- 0 -->
      <defs>
       <path d="M 31.78125 66.40625 
Q 24.171875 66.40625 20.328125 58.90625 
Q 16.5 51.421875 16.5 36.375 
Q 16.5 21.390625 20.328125 13.890625 
Q 24.171875 6.390625 31.78125 6.390625 
Q 39.453125 6.390625 43.28125 13.890625 
Q 47.125 21.390625 47.125 36.375 
Q 47.125 51.421875 43.28125 58.90625 
Q 39.453125 66.40625 31.78125 66.40625 
z
M 31.78125 74.21875 
Q 44.046875 74.21875 50.515625 64.515625 
Q 56.984375 54.828125 56.984375 36.375 
Q 56.984375 17.96875 50.515625 8.265625 
Q 44.046875 -1.421875 31.78125 -1.421875 
Q 19.53125 -1.421875 13.0625 8.265625 
Q 6.59375 17.96875 6.59375 36.375 
Q 6.59375 54.828125 13.0625 64.515625 
Q 19.53125 74.21875 31.78125 74.21875 
z
" id="DejaVuSans-30"/>
      </defs>
      <g transform="translate(66.036932 399.078438)scale(0.1 -0.1)">
       <use xlink:href="#DejaVuSans-30"/>
      </g>
     </g>
    </g>
    <g id="xtick_2">
     <g id="line2d_2">
      <g>
       <use style="stroke:#000000;stroke-width:0.8;" x="130.096997" xlink:href="#m042bb6240f" y="384.48"/>
      </g>
     </g>
     <g id="text_2">
      <!-- 2000 -->
      <defs>
       <path d="M 19.1875 8.296875 
L 53.609375 8.296875 
L 53.609375 0 
L 7.328125 0 
L 7.328125 8.296875 
Q 12.9375 14.109375 22.625 23.890625 
Q 32.328125 33.6875 34.8125 36.53125 
Q 39.546875 41.84375 41.421875 45.53125 
Q 43.3125 49.21875 43.3125 52.78125 
Q 43.3125 58.59375 39.234375 62.25 
Q 35.15625 65.921875 28.609375 65.921875 
Q 23.96875 65.921875 18.8125 64.3125 
Q 13.671875 62.703125 7.8125 59.421875 
L 7.8125 69.390625 
Q 13.765625 71.78125 18.9375 73 
Q 24.125 74.21875 28.421875 74.21875 
Q 39.75 74.21875 46.484375 68.546875 
Q 53.21875 62.890625 53.21875 53.421875 
Q 53.21875 48.921875 51.53125 44.890625 
Q 49.859375 40.875 45.40625 35.40625 
Q 44.1875 33.984375 37.640625 27.21875 
Q 31.109375 20.453125 19.1875 8.296875 
z
" id="DejaVuSans-32"/>
      </defs>
      <g transform="translate(117.371997 399.078438)scale(0.1 -0.1)">
       <use xlink:href="#DejaVuSans-32"/>
       <use x="63.623047" xlink:href="#DejaVuSans-30"/>
       <use x="127.246094" xlink:href="#DejaVuSans-30"/>
       <use x="190.869141" xlink:href="#DejaVuSans-30"/>
      </g>
     </g>
    </g>
    <g id="xtick_3">
     <g id="line2d_3">
      <g>
       <use style="stroke:#000000;stroke-width:0.8;" x="190.975812" xlink:href="#m042bb6240f" y="384.48"/>
      </g>
     </g>
     <g id="text_3">
      <!-- 4000 -->
      <defs>
       <path d="M 37.796875 64.3125 
L 12.890625 25.390625 
L 37.796875 25.390625 
z
M 35.203125 72.90625 
L 47.609375 72.90625 
L 47.609375 25.390625 
L 58.015625 25.390625 
L 58.015625 17.1875 
L 47.609375 17.1875 
L 47.609375 0 
L 37.796875 0 
L 37.796875 17.1875 
L 4.890625 17.1875 
L 4.890625 26.703125 
z
" id="DejaVuSans-34"/>
      </defs>
      <g transform="translate(178.250812 399.078438)scale(0.1 -0.1)">
       <use xlink:href="#DejaVuSans-34"/>
       <use x="63.623047" xlink:href="#DejaVuSans-30"/>
       <use x="127.246094" xlink:href="#DejaVuSans-30"/>
       <use x="190.869141" xlink:href="#DejaVuSans-30"/>
      </g>
     </g>
    </g>
    <g id="xtick_4">
     <g id="line2d_4">
      <g>
       <use style="stroke:#000000;stroke-width:0.8;" x="251.854627" xlink:href="#m042bb6240f" y="384.48"/>
      </g>
     </g>
     <g id="text_4">
      <!-- 6000 -->
      <defs>
       <path d="M 33.015625 40.375 
Q 26.375 40.375 22.484375 35.828125 
Q 18.609375 31.296875 18.609375 23.390625 
Q 18.609375 15.53125 22.484375 10.953125 
Q 26.375 6.390625 33.015625 6.390625 
Q 39.65625 6.390625 43.53125 10.953125 
Q 47.40625 15.53125 47.40625 23.390625 
Q 47.40625 31.296875 43.53125 35.828125 
Q 39.65625 40.375 33.015625 40.375 
z
M 52.59375 71.296875 
L 52.59375 62.3125 
Q 48.875 64.0625 45.09375 64.984375 
Q 41.3125 65.921875 37.59375 65.921875 
Q 27.828125 65.921875 22.671875 59.328125 
Q 17.53125 52.734375 16.796875 39.40625 
Q 19.671875 43.65625 24.015625 45.921875 
Q 28.375 48.1875 33.59375 48.1875 
Q 44.578125 48.1875 50.953125 41.515625 
Q 57.328125 34.859375 57.328125 23.390625 
Q 57.328125 12.15625 50.6875 5.359375 
Q 44.046875 -1.421875 33.015625 -1.421875 
Q 20.359375 -1.421875 13.671875 8.265625 
Q 6.984375 17.96875 6.984375 36.375 
Q 6.984375 53.65625 15.1875 63.9375 
Q 23.390625 74.21875 37.203125 74.21875 
Q 40.921875 74.21875 44.703125 73.484375 
Q 48.484375 72.75 52.59375 71.296875 
z
" id="DejaVuSans-36"/>
      </defs>
      <g transform="translate(239.129627 399.078438)scale(0.1 -0.1)">
       <use xlink:href="#DejaVuSans-36"/>
       <use x="63.623047" xlink:href="#DejaVuSans-30"/>
       <use x="127.246094" xlink:href="#DejaVuSans-30"/>
       <use x="190.869141" xlink:href="#DejaVuSans-30"/>
      </g>
     </g>
    </g>
    <g id="xtick_5">
     <g id="line2d_5">
      <g>
       <use style="stroke:#000000;stroke-width:0.8;" x="312.733442" xlink:href="#m042bb6240f" y="384.48"/>
      </g>
     </g>
     <g id="text_5">
      <!-- 8000 -->
      <defs>
       <path d="M 31.78125 34.625 
Q 24.75 34.625 20.71875 30.859375 
Q 16.703125 27.09375 16.703125 20.515625 
Q 16.703125 13.921875 20.71875 10.15625 
Q 24.75 6.390625 31.78125 6.390625 
Q 38.8125 6.390625 42.859375 10.171875 
Q 46.921875 13.96875 46.921875 20.515625 
Q 46.921875 27.09375 42.890625 30.859375 
Q 38.875 34.625 31.78125 34.625 
z
M 21.921875 38.8125 
Q 15.578125 40.375 12.03125 44.71875 
Q 8.5 49.078125 8.5 55.328125 
Q 8.5 64.0625 14.71875 69.140625 
Q 20.953125 74.21875 31.78125 74.21875 
Q 42.671875 74.21875 48.875 69.140625 
Q 55.078125 64.0625 55.078125 55.328125 
Q 55.078125 49.078125 51.53125 44.71875 
Q 48 40.375 41.703125 38.8125 
Q 48.828125 37.15625 52.796875 32.3125 
Q 56.78125 27.484375 56.78125 20.515625 
Q 56.78125 9.90625 50.3125 4.234375 
Q 43.84375 -1.421875 31.78125 -1.421875 
Q 19.734375 -1.421875 13.25 4.234375 
Q 6.78125 9.90625 6.78125 20.515625 
Q 6.78125 27.484375 10.78125 32.3125 
Q 14.796875 37.15625 21.921875 38.8125 
z
M 18.3125 54.390625 
Q 18.3125 48.734375 21.84375 45.5625 
Q 25.390625 42.390625 31.78125 42.390625 
Q 38.140625 42.390625 41.71875 45.5625 
Q 45.3125 48.734375 45.3125 54.390625 
Q 45.3125 60.0625 41.71875 63.234375 
Q 38.140625 66.40625 31.78125 66.40625 
Q 25.390625 66.40625 21.84375 63.234375 
Q 18.3125 60.0625 18.3125 54.390625 
z
" id="DejaVuSans-38"/>
      </defs>
      <g transform="translate(300.008442 399.078438)scale(0.1 -0.1)">
       <use xlink:href="#DejaVuSans-38"/>
       <use x="63.623047" xlink:href="#DejaVuSans-30"/>
       <use x="127.246094" xlink:href="#DejaVuSans-30"/>
       <use x="190.869141" xlink:href="#DejaVuSans-30"/>
      </g>
     </g>
    </g>
    <g id="xtick_6">
     <g id="line2d_6">
      <g>
       <use style="stroke:#000000;stroke-width:0.8;" x="373.612258" xlink:href="#m042bb6240f" y="384.48"/>
      </g>
     </g>
     <g id="text_6">
      <!-- 10000 -->
      <defs>
       <path d="M 12.40625 8.296875 
L 28.515625 8.296875 
L 28.515625 63.921875 
L 10.984375 60.40625 
L 10.984375 69.390625 
L 28.421875 72.90625 
L 38.28125 72.90625 
L 38.28125 8.296875 
L 54.390625 8.296875 
L 54.390625 0 
L 12.40625 0 
z
" id="DejaVuSans-31"/>
      </defs>
      <g transform="translate(357.706008 399.078438)scale(0.1 -0.1)">
       <use xlink:href="#DejaVuSans-31"/>
       <use x="63.623047" xlink:href="#DejaVuSans-30"/>
       <use x="127.246094" xlink:href="#DejaVuSans-30"/>
       <use x="190.869141" xlink:href="#DejaVuSans-30"/>
       <use x="254.492188" xlink:href="#DejaVuSans-30"/>
      </g>
     </g>
    </g>
   </g>
   <g id="matplotlib.axis_2">
    <g id="ytick_1">
     <g id="line2d_7">
      <defs>
       <path d="M 0 0 
L -3.5 0 
" id="mb2de01bcff" style="stroke:#000000;stroke-width:0.8;"/>
      </defs>
      <g>
       <use style="stroke:#000000;stroke-width:0.8;" x="54" xlink:href="#mb2de01bcff" y="370.321144"/>
      </g>
     </g>
     <g id="text_7">
      <!-- −40 -->
      <defs>
       <path d="M 10.59375 35.5 
L 73.1875 35.5 
L 73.1875 27.203125 
L 10.59375 27.203125 
z
" id="DejaVuSans-2212"/>
      </defs>
      <g transform="translate(25.895312 374.120363)scale(0.1 -0.1)">
       <use xlink:href="#DejaVuSans-2212"/>
       <use x="83.789062" xlink:href="#DejaVuSans-34"/>
       <use x="147.412109" xlink:href="#DejaVuSans-30"/>
      </g>
     </g>
    </g>
    <g id="ytick_2">
     <g id="line2d_8">
      <g>
       <use style="stroke:#000000;stroke-width:0.8;" x="54" xlink:href="#mb2de01bcff" y="332.041678"/>
      </g>
     </g>
     <g id="text_8">
      <!-- −30 -->
      <defs>
       <path d="M 40.578125 39.3125 
Q 47.65625 37.796875 51.625 33 
Q 55.609375 28.21875 55.609375 21.1875 
Q 55.609375 10.40625 48.1875 4.484375 
Q 40.765625 -1.421875 27.09375 -1.421875 
Q 22.515625 -1.421875 17.65625 -0.515625 
Q 12.796875 0.390625 7.625 2.203125 
L 7.625 11.71875 
Q 11.71875 9.328125 16.59375 8.109375 
Q 21.484375 6.890625 26.8125 6.890625 
Q 36.078125 6.890625 40.9375 10.546875 
Q 45.796875 14.203125 45.796875 21.1875 
Q 45.796875 27.640625 41.28125 31.265625 
Q 36.765625 34.90625 28.71875 34.90625 
L 20.21875 34.90625 
L 20.21875 43.015625 
L 29.109375 43.015625 
Q 36.375 43.015625 40.234375 45.921875 
Q 44.09375 48.828125 44.09375 54.296875 
Q 44.09375 59.90625 40.109375 62.90625 
Q 36.140625 65.921875 28.71875 65.921875 
Q 24.65625 65.921875 20.015625 65.03125 
Q 15.375 64.15625 9.8125 62.3125 
L 9.8125 71.09375 
Q 15.4375 72.65625 20.34375 73.4375 
Q 25.25 74.21875 29.59375 74.21875 
Q 40.828125 74.21875 47.359375 69.109375 
Q 53.90625 64.015625 53.90625 55.328125 
Q 53.90625 49.265625 50.4375 45.09375 
Q 46.96875 40.921875 40.578125 39.3125 
z
" id="DejaVuSans-33"/>
      </defs>
      <g transform="translate(25.895312 335.840897)scale(0.1 -0.1)">
       <use xlink:href="#DejaVuSans-2212"/>
       <use x="83.789062" xlink:href="#DejaVuSans-33"/>
       <use x="147.412109" xlink:href="#DejaVuSans-30"/>
      </g>
     </g>
    </g>
    <g id="ytick_3">
     <g id="line2d_9">
      <g>
       <use style="stroke:#000000;stroke-width:0.8;" x="54" xlink:href="#mb2de01bcff" y="293.762212"/>
      </g>
     </g>
     <g id="text_9">
      <!-- −20 -->
      <g transform="translate(25.895312 297.561431)scale(0.1 -0.1)">
       <use xlink:href="#DejaVuSans-2212"/>
       <use x="83.789062" xlink:href="#DejaVuSans-32"/>
       <use x="147.412109" xlink:href="#DejaVuSans-30"/>
      </g>
     </g>
    </g>
    <g id="ytick_4">
     <g id="line2d_10">
      <g>
       <use style="stroke:#000000;stroke-width:0.8;" x="54" xlink:href="#mb2de01bcff" y="255.482746"/>
      </g>
     </g>
     <g id="text_10">
      <!-- −10 -->
      <g transform="translate(25.895312 259.281965)scale(0.1 -0.1)">
       <use xlink:href="#DejaVuSans-2212"/>
       <use x="83.789062" xlink:href="#DejaVuSans-31"/>
       <use x="147.412109" xlink:href="#DejaVuSans-30"/>
      </g>
     </g>
    </g>
    <g id="ytick_5">
     <g id="line2d_11">
      <g>
       <use style="stroke:#000000;stroke-width:0.8;" x="54" xlink:href="#mb2de01bcff" y="217.203281"/>
      </g>
     </g>
     <g id="text_11">
      <!-- 0 -->
      <g transform="translate(40.6375 221.002499)scale(0.1 -0.1)">
       <use xlink:href="#DejaVuSans-30"/>
      </g>
     </g>
    </g>
    <g id="ytick_6">
     <g id="line2d_12">
      <g>
       <use style="stroke:#000000;stroke-width:0.8;" x="54" xlink:href="#mb2de01bcff" y="178.923815"/>
      </g>
     </g>
     <g id="text_12">
      <!-- 10 -->
      <g transform="translate(34.275 182.723033)scale(0.1 -0.1)">
       <use xlink:href="#DejaVuSans-31"/>
       <use x="63.623047" xlink:href="#DejaVuSans-30"/>
      </g>
     </g>
    </g>
    <g id="ytick_7">
     <g id="line2d_13">
      <g>
       <use style="stroke:#000000;stroke-width:0.8;" x="54" xlink:href="#mb2de01bcff" y="140.644349"/>
      </g>
     </g>
     <g id="text_13">
      <!-- 20 -->
      <g transform="translate(34.275 144.443568)scale(0.1 -0.1)">
       <use xlink:href="#DejaVuSans-32"/>
       <use x="63.623047" xlink:href="#DejaVuSans-30"/>
      </g>
     </g>
    </g>
    <g id="ytick_8">
     <g id="line2d_14">
      <g>
       <use style="stroke:#000000;stroke-width:0.8;" x="54" xlink:href="#mb2de01bcff" y="102.364883"/>
      </g>
     </g>
     <g id="text_14">
      <!-- 30 -->
      <g transform="translate(34.275 106.164102)scale(0.1 -0.1)">
       <use xlink:href="#DejaVuSans-33"/>
       <use x="63.623047" xlink:href="#DejaVuSans-30"/>
      </g>
     </g>
    </g>
    <g id="ytick_9">
     <g id="line2d_15">
      <g>
       <use style="stroke:#000000;stroke-width:0.8;" x="54" xlink:href="#mb2de01bcff" y="64.085417"/>
      </g>
     </g>
     <g id="text_15">
      <!-- 40 -->
      <g transform="translate(34.275 67.884636)scale(0.1 -0.1)">
       <use xlink:href="#DejaVuSans-34"/>
       <use x="63.623047" xlink:href="#DejaVuSans-30"/>
      </g>
     </g>
    </g>
   </g>
   <g id="line2d_16">
    <path clip-path="url(#p4e822a5f76)" d="M 69.218182 217.203281 
L 69.735652 217.095398 
L 70.435758 216.686069 
L 71.409819 216.132047 
L 71.86641 216.115874 
L 72.292562 216.32624 
L 72.779593 216.845985 
L 73.449259 217.937569 
L 74.605957 219.82022 
L 75.032109 220.116692 
L 75.366942 220.092871 
L 75.701776 219.816737 
L 76.097488 219.164871 
L 76.645397 217.762325 
L 78.441322 212.694138 
L 78.776156 212.39846 
L 79.05011 212.429357 
L 79.324065 212.719692 
L 79.689338 213.505117 
L 80.176369 215.178525 
L 81.028672 219.115676 
L 81.880975 222.669441 
L 82.307127 223.672703 
L 82.611521 223.927373 
L 82.824597 223.852328 
L 83.068112 223.50432 
L 83.402946 222.580131 
L 83.859537 220.580499 
L 84.620522 216.02951 
L 85.594583 210.471388 
L 86.051174 208.97247 
L 86.355568 208.582725 
L 86.568644 208.631649 
L 86.78172 208.952328 
L 87.086114 209.872943 
L 87.512266 211.993987 
L 88.151493 216.500651 
L 89.429948 225.658254 
L 89.8561 227.295348 
L 90.160494 227.737767 
L 90.343131 227.686198 
L 90.556207 227.31963 
L 90.860601 226.235767 
L 91.286752 223.712585 
L 91.92598 218.328472 
L 93.204435 207.338816 
L 93.661026 205.249674 
L 93.934981 204.769555 
L 94.117617 204.800045 
L 94.300254 205.115961 
L 94.574208 206.116406 
L 94.969921 208.595621 
L 95.548269 213.937032 
L 97.131119 229.438588 
L 97.526831 231.198612 
L 97.770346 231.565573 
L 97.922543 231.501241 
L 98.10518 231.122924 
L 98.379134 229.951571 
L 98.774847 227.079265 
L 99.353195 220.936914 
L 100.905605 203.511897 
L 101.301317 201.420932 
L 101.575272 200.927114 
L 101.727469 201.010765 
L 101.910106 201.451661 
L 102.18406 202.79417 
L 102.579773 206.059871 
L 103.158121 213.003428 
L 104.680092 232.294031 
L 105.106243 234.858537 
L 105.349759 235.379354 
L 105.501956 235.333886 
L 105.684592 234.899059 
L 105.958547 233.484354 
L 106.32382 230.278843 
L 106.871729 223.226968 
L 108.576336 199.703611 
L 108.941609 197.561193 
L 109.185124 197.099425 
L 109.306882 197.17213 
L 109.489518 197.662794 
L 109.763473 199.239133 
L 110.159185 203.154905 
L 110.737534 211.570959 
L 112.289944 235.539647 
L 112.685656 238.468783 
L 112.959611 239.207636 
L 113.081368 239.177288 
L 113.233565 238.825779 
L 113.47708 237.54872 
L 113.811914 234.436209 
L 114.298944 227.551052 
L 115.333884 208.580832 
L 116.033991 197.924512 
L 116.460142 194.235752 
L 116.734097 193.312825 
L 116.855855 193.291333 
L 117.008052 193.605182 
L 117.221128 194.67437 
L 117.555961 197.769326 
L 118.012552 204.395961 
L 118.803977 219.808446 
L 119.717159 236.434271 
L 120.17375 241.41205 
L 120.478144 242.900562 
L 120.630341 243.044726 
L 120.660781 243.024584 
L 120.812978 242.678648 
L 121.026054 241.514983 
L 121.360887 238.162031 
L 121.817478 231.002206 
L 122.639342 213.717382 
L 123.522085 196.517693 
L 123.978676 191.183963 
L 124.28307 189.597814 
L 124.435267 189.449722 
L 124.557025 189.647036 
L 124.739661 190.467117 
L 125.013616 192.841802 
L 125.409328 198.474244 
L 126.018116 210.9255 
L 127.418329 240.756272 
L 127.844481 245.513758 
L 128.118435 246.784779 
L 128.240193 246.8689 
L 128.270633 246.843047 
L 128.42283 246.432486 
L 128.666345 244.813392 
L 129.001178 240.759164 
L 129.488209 231.677817 
L 130.46227 207.902648 
L 131.192816 192.590186 
L 131.649407 187.052649 
L 131.923361 185.71026 
L 132.045119 185.625655 
L 132.075558 185.654409 
L 132.227756 186.097507 
L 132.471271 187.829853 
L 132.806104 192.154418 
L 133.293135 201.823848 
L 134.267196 227.091538 
L 134.997742 243.333874 
L 135.454333 249.194399 
L 135.728287 250.60789 
L 135.850045 250.692857 
L 135.880484 250.661172 
L 136.032681 250.185387 
L 136.276197 248.33956 
L 136.61103 243.744371 
L 137.098061 233.486551 
L 138.072122 206.726254 
L 138.802668 189.554453 
L 139.259259 183.371341 
L 139.533213 181.887017 
L 139.654971 181.801808 
L 139.68541 181.836454 
L 139.837607 182.345076 
L 140.081123 184.304617 
L 140.415956 189.170713 
L 140.902987 200.017231 
L 141.907487 229.147281 
L 142.638033 246.943078 
L 143.064185 252.876373 
L 143.338139 254.431263 
L 143.459897 254.516594 
L 143.581655 254.224522 
L 143.79473 252.812594 
L 144.099124 248.88434 
L 144.525276 240.047312 
L 145.194943 220.800651 
L 146.351641 187.773668 
L 146.808232 180.312443 
L 147.112626 178.146676 
L 147.234383 177.962338 
L 147.264823 177.978184 
L 147.38658 178.289568 
L 147.599656 179.781068 
L 147.90405 183.919142 
L 148.330202 193.215021 
L 149.030308 214.442724 
L 150.156567 248.092967 
L 150.613158 255.907404 
L 150.917552 258.16874 
L 151.039309 258.357794 
L 151.069749 258.340105 
L 151.191506 258.009288 
L 151.404582 256.43801 
L 151.708976 252.089844 
L 152.135128 242.334807 
L 152.835234 220.082257 
L 153.961493 184.85274 
L 154.418084 176.685482 
L 154.722478 174.328872 
L 154.844235 174.135223 
L 154.874675 174.154787 
L 154.996432 174.505157 
L 155.209508 176.156419 
L 155.513902 180.714947 
L 155.940054 190.929451 
L 156.64016 214.207084 
L 157.766418 251.015456 
L 158.22301 259.535142 
L 158.527404 261.986732 
L 158.649161 262.184854 
L 158.679601 262.163386 
L 158.801358 261.793342 
L 159.014434 260.061891 
L 159.318828 255.292729 
L 159.74498 244.618451 
L 160.445086 220.315496 
L 161.540905 182.711146 
L 161.997496 173.467317 
L 162.30189 170.635079 
L 162.454087 170.30822 
L 162.484527 170.331623 
L 162.606284 170.72146 
L 162.81936 172.533305 
L 163.123754 177.513373 
L 163.549906 188.647732 
L 164.250012 213.976246 
L 165.345831 253.127124 
L 165.802422 262.738207 
L 166.106816 265.676631 
L 166.259013 266.0118 
L 166.289453 265.986432 
L 166.41121 265.576681 
L 166.624286 263.684236 
L 166.92868 258.49299 
L 167.354832 246.898244 
L 168.054938 220.543934 
L 169.150757 179.846927 
L 169.607348 169.868976 
L 169.911742 166.82466 
L 170.063939 166.481332 
L 170.094379 166.508696 
L 170.216136 166.938481 
L 170.429212 168.911731 
L 170.733606 174.314425 
L 171.159758 186.369867 
L 171.859864 213.750209 
L 172.955683 255.992947 
L 173.412274 266.337379 
L 173.716668 269.487292 
L 173.868865 269.838628 
L 173.899304 269.809239 
L 174.021062 269.359299 
L 174.234138 267.305038 
L 174.538532 261.690625 
L 174.964684 249.17418 
L 175.66479 220.76757 
L 176.760609 176.979502 
L 177.2172 166.268975 
L 177.521594 163.013757 
L 177.673791 162.654566 
L 177.70423 162.68601 
L 177.825988 163.156224 
L 178.039064 165.291701 
L 178.343458 171.118105 
L 178.76961 184.095859 
L 179.469716 213.528974 
L 180.565535 258.861972 
L 181.022126 269.938207 
L 181.32652 273.298435 
L 181.478717 273.665332 
L 181.509156 273.631802 
L 181.630914 273.141193 
L 181.84399 270.924294 
L 182.148384 264.885629 
L 182.574536 251.446259 
L 183.274642 220.986403 
L 184.370461 174.108875 
L 184.827052 162.667321 
L 185.131446 159.202376 
L 185.283643 158.827924 
L 185.314082 158.86357 
L 185.43584 159.374695 
L 185.648916 161.67322 
L 185.95331 167.924418 
L 186.379462 181.825711 
L 187.079568 213.312542 
L 188.175387 261.734198 
L 188.631978 273.540687 
L 188.936372 277.110054 
L 189.088569 277.49191 
L 189.179887 277.264263 
L 189.332084 276.126063 
L 189.575599 272.374901 
L 189.940872 262.611161 
L 190.458342 241.920278 
L 192.284707 162.285771 
L 192.64998 156.092236 
L 192.863055 155.000757 
L 192.923934 155.04138 
L 193.045692 155.593897 
L 193.258768 158.056291 
L 193.563162 164.733368 
L 193.989313 179.559424 
L 194.68942 213.100912 
L 195.785239 264.609621 
L 196.24183 277.144815 
L 196.546224 280.922145 
L 196.698421 281.318355 
L 196.789739 281.070318 
L 196.972375 279.486228 
L 197.24633 274.465132 
L 197.642042 262.109272 
L 198.220391 235.819447 
L 199.742362 163.193944 
L 200.168513 153.423884 
L 200.442468 151.211386 
L 200.503347 151.175034 
L 200.533786 151.219446 
L 200.655544 151.813835 
L 200.86862 154.440919 
L 201.173014 161.544958 
L 201.599165 177.297003 
L 202.299272 212.894084 
L 203.39509 267.488237 
L 203.851682 280.750588 
L 204.156076 284.734704 
L 204.308273 285.144665 
L 204.399591 284.875876 
L 204.582227 283.185625 
L 204.856182 277.849071 
L 205.251894 264.739283 
L 205.830243 236.876241 
L 207.352213 160.020255 
L 207.778365 149.706549 
L 208.05232 147.383273 
L 208.113199 147.348795 
L 208.143638 147.397771 
L 208.265396 148.034513 
L 208.478471 150.827108 
L 208.782866 158.359192 
L 209.209017 175.038449 
L 209.909124 212.69206 
L 211.004942 270.370043 
L 211.461533 284.358 
L 211.765928 288.547725 
L 211.887685 288.976778 
L 211.918125 288.970833 
L 212.009443 288.68093 
L 212.192079 286.883806 
L 212.466034 281.230781 
L 212.861746 267.365815 
L 213.440095 237.928417 
L 214.931626 157.921432 
L 215.357778 146.48576 
L 215.631732 143.641026 
L 215.72305 143.522699 
L 215.75349 143.57636 
L 215.875248 144.255936 
L 216.088323 147.214863 
L 216.392717 155.176074 
L 216.818869 172.783766 
L 217.518976 212.494839 
L 218.614794 273.255035 
L 219.071385 287.967047 
L 219.375779 292.361205 
L 219.497537 292.805129 
L 219.527976 292.796855 
L 219.619295 292.485477 
L 219.801931 290.580767 
L 220.075886 284.610258 
L 220.471598 269.988863 
L 221.049947 238.975974 
L 222.541478 154.796953 
L 222.967629 142.790048 
L 223.241584 139.815169 
L 223.332902 139.69675 
L 223.363342 139.755217 
L 223.485099 140.478109 
L 223.698175 143.604188 
L 224.002569 151.995608 
L 224.428721 170.532955 
L 225.128827 212.302421 
L 226.224646 276.14321 
L 226.681237 291.577726 
L 226.985631 296.175139 
L 227.107389 296.633451 
L 227.137828 296.622728 
L 227.229147 296.289513 
L 227.411783 294.276502 
L 227.685738 287.987497 
L 228.08145 272.608426 
L 228.659799 240.018911 
L 230.15133 151.669671 
L 230.577481 139.093052 
L 230.851436 135.989103 
L 230.912315 135.858962 
L 230.973194 135.934348 
L 231.094951 136.701036 
L 231.308027 139.995086 
L 231.612421 148.817797 
L 232.038573 168.286021 
L 232.738679 212.114807 
L 233.834498 279.034565 
L 234.291089 295.190031 
L 234.595483 299.989523 
L 234.717241 300.461739 
L 234.74768 300.448446 
L 234.838998 300.093031 
L 235.021635 297.971008 
L 235.29559 291.362495 
L 235.691302 275.224499 
L 236.269651 241.057227 
L 237.761182 148.539589 
L 238.187333 135.394778 
L 238.461288 132.16283 
L 238.522167 132.030693 
L 238.583046 132.113756 
L 238.704803 132.924721 
L 238.917879 136.387563 
L 239.222273 145.642645 
L 239.678864 167.779496 
L 240.439849 218.421101 
L 241.41391 280.449882 
L 241.900941 298.803959 
L 242.205335 303.804352 
L 242.327093 304.289988 
L 242.357532 304.274005 
L 242.44885 303.896029 
L 242.631487 301.664281 
L 242.905441 294.735248 
L 243.301154 277.837079 
L 243.879502 242.09092 
L 245.371033 145.406712 
L 245.797185 131.695229 
L 246.07114 128.336356 
L 246.132019 128.202464 
L 246.192897 128.293447 
L 246.314655 129.149169 
L 246.527731 132.781623 
L 246.832125 142.470157 
L 247.288716 165.61909 
L 248.049701 218.531753 
L 249.023762 283.283769 
L 249.510793 302.419505 
L 249.815187 307.619621 
L 249.936945 308.118195 
L 249.967384 308.099401 
L 250.058702 307.698502 
L 250.241339 305.356316 
L 250.515293 298.105751 
L 250.911006 280.446164 
L 251.489354 243.119988 
L 252.980885 142.271043 
L 253.407037 127.99441 
L 253.680992 124.509685 
L 253.741871 124.37428 
L 253.802749 124.473424 
L 253.924507 125.374384 
L 254.137583 129.17727 
L 254.441977 139.300335 
L 254.898568 163.462638 
L 255.659553 218.647215 
L 256.633614 286.120917 
L 257.120645 306.036666 
L 257.425039 311.435325 
L 257.546796 311.946355 
L 257.577236 311.924628 
L 257.668554 311.500444 
L 257.851191 309.047108 
L 258.125145 301.474001 
L 258.520858 283.05175 
L 259.099206 244.144431 
L 260.590737 139.132585 
L 261.016889 124.292325 
L 261.290844 120.682822 
L 261.351722 120.546145 
L 261.412601 120.653692 
L 261.534359 121.600371 
L 261.747435 125.574508 
L 262.051829 136.133184 
L 262.50842 161.310142 
L 263.269405 218.767488 
L 264.243466 288.96132 
L 264.730497 309.655436 
L 265.034891 315.251462 
L 265.156648 315.774463 
L 265.187088 315.749683 
L 265.278406 315.301853 
L 265.461042 312.736653 
L 265.734997 304.839993 
L 266.130709 285.653834 
L 266.709058 245.164248 
L 268.200589 135.991343 
L 268.626741 120.588979 
L 268.900696 116.85577 
L 268.961574 116.718065 
L 269.022453 116.834256 
L 269.144211 117.827134 
L 269.357287 121.973341 
L 269.661681 132.968707 
L 270.118272 159.161606 
L 270.879257 218.892571 
L 271.853318 291.804976 
L 272.340349 313.275811 
L 272.644743 319.068025 
L 272.7665 319.602515 
L 272.79694 319.57456 
L 272.888258 319.102722 
L 273.070894 316.424947 
L 273.344849 308.203725 
L 273.740561 288.252414 
L 274.31891 246.179436 
L 275.810441 132.847321 
L 276.236593 116.884376 
L 276.510547 113.028536 
L 276.571426 112.890043 
L 276.601866 112.91963 
L 276.693184 113.403608 
L 276.87582 116.137937 
L 277.149775 124.52182 
L 277.545487 144.856173 
L 278.123836 187.721266 
L 279.615367 303.132294 
L 280.041519 319.374957 
L 280.315473 323.291709 
L 280.376352 323.430506 
L 280.406792 323.399256 
L 280.49811 322.903047 
L 280.680746 320.111986 
L 280.954701 311.56519 
L 281.350413 290.847485 
L 281.928762 247.189996 
L 283.420293 129.700521 
L 283.846445 113.17852 
L 284.120399 109.201123 
L 284.181278 109.062084 
L 284.211718 109.095027 
L 284.303036 109.603556 
L 284.485672 112.451528 
L 284.759627 121.161489 
L 285.155339 142.262857 
L 285.733688 186.713022 
L 287.225219 306.280481 
L 287.651371 323.081437 
L 287.925325 327.11921 
L 287.986204 327.258431 
L 288.016643 327.223765 
L 288.107962 326.702825 
L 288.290598 323.797764 
L 288.564553 314.924386 
L 288.960265 293.439045 
L 289.538614 248.195925 
L 291.030145 126.550947 
L 291.456297 109.471416 
L 291.730251 105.373536 
L 291.79113 105.234193 
L 291.821569 105.270612 
L 291.912888 105.804054 
L 292.095524 108.766381 
L 292.369479 117.803429 
L 292.765191 139.673053 
L 293.34354 185.709408 
L 294.835071 309.43144 
L 295.261222 326.789164 
L 295.535177 330.946883 
L 295.596056 331.086287 
L 295.626495 331.048084 
L 295.717814 330.50205 
L 295.90045 327.482279 
L 296.174405 318.281309 
L 296.570117 296.027091 
L 297.178905 246.42361 
L 298.609557 125.130448 
L 299.035709 106.588201 
L 299.309664 101.725073 
L 299.400982 101.406374 
L 299.431421 101.446391 
L 299.52274 102.005107 
L 299.705376 105.082501 
L 299.979331 114.447644 
L 300.375043 137.086766 
L 300.983831 187.530656 
L 302.414483 310.825546 
L 302.840635 329.660473 
L 303.11459 334.593644 
L 303.205908 334.914068 
L 303.236347 334.872207 
L 303.327665 334.300719 
L 303.510302 331.165524 
L 303.784257 321.635955 
L 304.179969 298.61162 
L 304.788757 247.327035 
L 306.219409 122.030867 
L 306.645561 102.903637 
L 306.919516 97.90069 
L 307.010834 97.578632 
L 307.041273 97.622367 
L 307.132591 98.206718 
L 307.315228 101.399891 
L 307.589183 111.094139 
L 307.984895 134.503997 
L 308.593683 186.629564 
L 310.024335 313.926558 
L 310.450487 333.345713 
L 310.724442 338.418169 
L 310.81576 338.74177 
L 310.846199 338.696131 
L 310.967957 337.746617 
L 311.150593 334.042489 
L 311.424548 323.540244 
L 311.82026 298.951365 
L 312.429048 245.245326 
L 313.798822 120.83285 
L 314.255413 99.217722 
L 314.529367 94.076025 
L 314.620686 93.750971 
L 314.651125 93.798545 
L 314.772883 94.767855 
L 314.955519 98.5374 
L 315.229474 109.214814 
L 315.625186 134.201998 
L 316.233974 188.760535 
L 317.603748 315.097345 
L 318.029899 336.069348 
L 318.334293 342.242973 
L 318.425612 342.569389 
L 318.456051 342.51985 
L 318.577809 341.530624 
L 318.760445 337.695485 
L 319.0344 326.842652 
L 319.430112 301.456859 
L 320.0389 246.045552 
L 321.408674 117.784845 
L 321.834825 96.50696 
L 322.139219 90.251083 
L 322.230538 89.923396 
L 322.260977 89.97493 
L 322.382735 90.984193 
L 322.565371 94.885102 
L 322.839326 105.913604 
L 323.235038 131.698308 
L 323.843826 187.962658 
L 325.2136 318.146825 
L 325.639751 339.730219 
L 325.944145 346.068051 
L 326.035464 346.396919 
L 326.065903 346.34336 
L 326.187661 345.31394 
L 326.400736 340.407917 
L 326.705131 326.841446 
L 327.131282 296.476646 
L 327.831389 227.49348 
L 328.927207 121.170817 
L 329.383798 95.086638 
L 329.688192 87.058825 
L 329.840389 86.095911 
L 329.870829 86.151526 
L 329.992587 87.201223 
L 330.205662 92.188476 
L 330.510056 105.966974 
L 330.936208 136.793169 
L 331.636315 206.803032 
L 332.732133 314.670926 
L 333.188724 341.120888 
L 333.493118 349.253734 
L 333.645315 350.224357 
L 333.675755 350.166656 
L 333.797512 349.096561 
L 334.010588 344.027874 
L 334.314982 330.037075 
L 334.741134 298.749179 
L 335.44124 227.712378 
L 336.537059 118.299647 
L 336.99365 91.484288 
L 337.298044 83.246702 
L 337.450241 82.268521 
L 337.480681 82.328338 
L 337.602438 83.418951 
L 337.815514 88.569279 
L 338.119908 102.772649 
L 338.54606 134.522556 
L 339.246166 206.586535 
L 340.341985 317.543707 
L 340.798576 344.724077 
L 341.10297 353.066111 
L 341.255167 354.051698 
L 341.285607 353.989735 
L 341.407364 352.878484 
L 341.62044 347.64631 
L 341.924834 333.230096 
L 342.350986 301.01787 
L 343.051092 227.926475 
L 344.146911 115.425256 
L 344.603502 87.88026 
L 344.907896 79.434074 
L 345.060093 78.44123 
L 345.090533 78.50537 
L 345.21229 79.63738 
L 345.425366 84.951606 
L 345.72976 99.580935 
L 346.155912 132.255788 
L 346.856018 206.374838 
L 347.951837 320.419708 
L 348.408428 348.328943 
L 348.712822 356.878989 
L 348.865019 357.878938 
L 348.895459 357.812591 
L 349.017216 356.659702 
L 349.230292 351.263219 
L 349.534686 336.420502 
L 349.960838 303.282715 
L 350.660944 228.135771 
L 351.756763 112.547647 
L 352.213354 84.274558 
L 352.517748 75.620946 
L 352.669945 74.614044 
L 352.700385 74.682627 
L 352.822142 75.856515 
L 353.035218 81.335461 
L 353.339612 96.391837 
L 353.765764 129.992867 
L 354.46587 206.167943 
L 355.561689 323.298924 
L 356.01828 351.935481 
L 356.322674 360.692365 
L 356.474871 361.706071 
L 356.505311 361.63522 
L 356.627068 360.440212 
L 356.840144 354.878598 
L 357.144538 339.608292 
L 357.57069 305.543711 
L 358.270796 228.340266 
L 359.366615 109.666824 
L 359.823206 80.667185 
L 360.1276 71.807323 
L 360.279797 70.786965 
L 360.310236 70.860113 
L 360.431994 72.076361 
L 360.64507 77.720849 
L 360.949464 93.205357 
L 361.375616 127.733796 
L 362.075722 205.965848 
L 363.171541 326.181353 
L 363.628132 355.543687 
L 363.932526 364.506234 
L 364.084723 365.533093 
L 364.115162 365.457617 
L 364.23692 364.220009 
L 364.449996 358.492442 
L 364.75439 342.793461 
L 365.180542 307.800857 
L 365.880648 228.539959 
L 366.976467 106.78279 
L 367.433058 77.058146 
L 367.737452 67.993209 
L 367.889649 66.96 
L 367.920088 67.037833 
L 368.041846 68.296922 
L 368.254922 74.107774 
L 368.559316 90.0215 
L 368.985468 125.478577 
L 369.685574 205.768556 
L 370.781393 329.066991 
L 371.237984 359.153558 
L 371.542378 368.320591 
L 371.694575 369.36 
L 371.725014 369.279779 
L 371.846772 367.999089 
L 372.059848 362.104747 
L 372.364242 345.976005 
L 372.790394 310.054148 
L 373.4905 228.734851 
L 373.581818 217.203281 
L 373.581818 217.203281 
" style="fill:none;stroke:#1f77b4;stroke-linecap:square;stroke-width:1.5;"/>
   </g>
   <g id="patch_3">
    <path d="M 54 384.48 
L 54 51.84 
" style="fill:none;stroke:#000000;stroke-linecap:square;stroke-linejoin:miter;stroke-width:0.8;"/>
   </g>
   <g id="patch_4">
    <path d="M 388.8 384.48 
L 388.8 51.84 
" style="fill:none;stroke:#000000;stroke-linecap:square;stroke-linejoin:miter;stroke-width:0.8;"/>
   </g>
   <g id="patch_5">
    <path d="M 54 384.48 
L 388.8 384.48 
" style="fill:none;stroke:#000000;stroke-linecap:square;stroke-linejoin:miter;stroke-width:0.8;"/>
   </g>
   <g id="patch_6">
    <path d="M 54 51.84 
L 388.8 51.84 
" style="fill:none;stroke:#000000;stroke-linecap:square;stroke-linejoin:miter;stroke-width:0.8;"/>
   </g>
  </g>
 </g>
 <defs>
  <clipPath id="p4e822a5f76">
   <rect height="332.64" width="334.8" x="54" y="51.84"/>
  </clipPath>
 </defs>
</svg>
